<svg xmlns="http://www.w3.org/2000/svg" version="1.1" xmlns:xlink="http://www.w3.org/1999/xlink" width="512" height="512" x="0" y="0" viewBox="0 0 512 512" style="enable-background:new 0 0 512 512" xml:space="preserve" class=""><g><path fill="#bd4150" d="M82.581 330.323H66.064c-22.804 0-41.29-18.486-41.29-41.29 0-13.682 11.092-24.774 24.774-24.774H82.58v66.064z" opacity="1" data-original="#bd4150" class=""/><path fill="#eceaec" d="M396.387 0H90.839l-8.506 16.516V504H470.71l16.516-8.516V90.839z" opacity="1" data-original="#eceaec" class=""/><path fill="#dad8db" d="M90.839 470.71V0c-9.121 0-16.516 7.394-16.516 16.516v478.968c0 9.122 7.395 16.516 16.516 16.516H470.71c9.121 0 16.516-7.395 16.516-16.516H115.613c-13.683 0-24.774-11.092-24.774-24.774zM487.226 89.421c0-4.38-1.74-8.581-4.838-11.679L409.48 4.837A16.516 16.516 0 0 0 397.802 0h-1.415v82.581a8.258 8.258 0 0 0 8.258 8.258h82.581z" opacity="1" data-original="#dad8db" class=""/><path fill="#df2347" d="M305.548 313.807h-256c-2.896 0-5.677-.497-8.261-1.411l-7.954 13.271V430c0 13.683 11.092 24.774 24.774 24.774h247.441l16.516-8.839V330.323c0-9.122-7.394-16.516-16.516-16.516z" opacity="1" data-original="#e15f78" class=""/><path fill="#df2347" d="M41.29 312.396c-9.6-3.413-16.516-12.592-16.516-23.364v148.645c0 13.682 11.092 24.774 24.774 24.774h256c9.121 0 16.516-7.395 16.516-16.516h-256c-13.682 0-24.774-11.092-24.774-24.774z" opacity="1" data-original="#db4655" class=""/><g fill="#fff"><path d="M260.452 379.25h-16.21v-15.653h18.323c4.565 0 8.258-3.698 8.258-8.258s-3.694-8.258-8.258-8.258h-26.581a8.256 8.256 0 0 0-8.258 8.258v65.581c0 4.56 3.694 8.258 8.258 8.258s8.258-3.698 8.258-8.258v-25.153h16.21c4.565 0 8.258-3.698 8.258-8.258s-3.694-8.259-8.258-8.259zM108.992 346.839H90.597a8.264 8.264 0 0 0-5.847 2.427 8.27 8.27 0 0 0-2.406 5.831h-.006v66.065c0 4.56 3.694 8.258 8.258 8.258s8.258-3.698 8.258-8.258V400.68c3.705-.02 7.778-.038 10.137-.038 15.032 0 27.266-12.069 27.266-26.899.001-14.836-12.233-26.904-27.265-26.904zm0 37.286a2198 2198 0 0 0-10.056.036c-.016-3.81-.056-20.806-.056-20.806h10.113c5.831 0 10.75 4.758 10.75 10.387s-4.92 10.383-10.751 10.383zM178.242 347.815h-18.153a8.26 8.26 0 0 0-5.847 2.423 8.246 8.246 0 0 0-2.411 5.851l.048 31.968c0 8.915.081 32.157.081 32.157a8.265 8.265 0 0 0 2.444 5.835 8.255 8.255 0 0 0 5.815 2.395h.032s13.46-.052 18.669-.141c19.395-.343 33.476-17.238 33.476-40.173-.001-24.114-13.727-40.315-34.154-40.315zm.387 63.971c-2.363.04-6.452.077-10.177.097-.024-7.56-.056-18.375-.056-23.827l-.032-23.726h9.879c16.79 0 17.637 19.823 17.637 23.798-.001 11.626-5.332 23.449-17.251 23.658z" fill="#ffffff" opacity="1" data-original="#ffffff" class=""/></g><path fill="#df2347" d="M197.935 279.363c-6.371 0-12.129-3.315-16.177-9.569-6.016-9.282-4.435-19.794 4.331-28.843 8.839-9.129 26.927-17.718 48.694-24.73 6.79-12.798 13.702-27.778 20.161-44.339 3.815-9.786 6.895-18.609 9.363-26.5-10.879-19.944-17.347-38.512-15.629-50.569 1.75-12.234 10.887-19.121 24.468-18.371 4.032.218 13.653 2.323 15.976 17.137 1.774 11.327-1.21 29.637-7.194 50.444 11.323 19.101 26.847 39.56 42.032 55.262 22.952-1.399 42.403.274 52.185 6.177 7.661 4.621 10.669 12.157 8.048 20.153-4.29 13.069-14.653 19.056-27.75 16.004-11.024-2.573-24.685-12.198-38.54-25.56-22.282 1.96-48.508 6.496-71.516 13.262-13.734 24.649-28.581 43.839-41.048 48.605-2.516.965-5 1.437-7.404 1.437zm-2.322-18.544c1.379 2.121 2.137 2.077 2.492 2.036 5.258-.536 14.016-9.613 24.016-24.956-6.613 2.835-12.54 5.907-17.524 9.206-12.5 8.278-9.847 12.367-8.984 13.714zm145.484-45.851c7.056 5.516 13.613 9.286 19.097 10.569 4.282.996 6.484.488 8.306-5.065-2.435-3.694-12.798-5.468-27.403-5.504zm-65.589-50.92a450.4 450.4 0 0 1-19.145 46.036c15.476-3.887 31.79-6.948 47.371-8.891-10.073-11.415-19.807-24.237-28.226-37.145zm-3.976-71.427c-5.863 0-6.169 2.198-6.508 4.52-.863 6.101 1.282 14.778 5.516 24.782 3.734-17.827 2.976-27.258 1.161-29.302h-.169z" opacity="1" data-original="#e15f78" class=""/></g></svg>